<svg width="14" height="15" viewBox="0 0 14 15" fill="none" xmlns="http://www.w3.org/2000/svg">
<path d="M6.85714 0.857147C3.07596 0.857147 0 3.93311 0 7.71429C0 11.4955 3.07596 14.5714 6.85714 14.5714C10.6383 14.5714 13.7143 11.4955 13.7143 7.71429C13.7143 3.93311 10.6383 0.857147 6.85714 0.857147ZM10.1183 11.2611C10.0069 11.3725 9.8606 11.4286 9.71432 11.4286C9.56805 11.4286 9.42167 11.3725 9.31034 11.2611L6.45316 8.40402C6.3457 8.29719 6.28575 8.15196 6.28575 8.00004V4.28572C6.28575 3.96973 6.54168 3.71432 6.85714 3.71432C7.17261 3.71432 7.42854 3.96973 7.42854 4.28572V7.76347L10.1183 10.4531C10.3417 10.6766 10.3417 11.0377 10.1183 11.2611Z" fill="#878787"/>
</svg>
