<svg width="64" height="64" viewBox="0 0 64 64" fill="none" xmlns="http://www.w3.org/2000/svg">
<path fill-rule="evenodd" clip-rule="evenodd" d="M0 12C0 5.37258 5.37258 0 12 0H52C58.6274 0 64 5.37258 64 12V52C64 58.6274 58.6274 64 52 64H12C5.37258 64 0 58.6274 0 52V12Z" fill="#FB6D3A" fill-opacity="0.1"/>
<path fill-rule="evenodd" clip-rule="evenodd" d="M40.5261 29.2739C40.9323 29.6856 41.3448 30.1036 41.702 30.5778L41.6146 30.5956C42.191 31.2711 42.6627 32 43.012 32.8178L43.2391 33.28C44.8985 37.3333 43.7631 42.0622 40.619 45.0133C37.8068 47.6444 33.8766 48.3378 30.2085 47.8578C26.7674 47.4133 23.5709 45.2089 21.7543 42.1333C21.1954 41.1911 20.7412 40.1244 20.4967 39.0578C20.1998 38.1689 20.095 37.28 20.0251 36.3911C19.7805 32.5333 21.3351 28.4444 24.1998 26.0267C22.8897 28.9422 23.2041 32.5867 25.1255 35.1289C25.2129 35.2533 25.2827 35.3422 25.3875 35.4311C25.7019 35.7156 26.1212 35.8222 26.5054 35.6444C26.8548 35.5022 27.1168 35.1467 27.1168 34.7556C27.1168 34.5244 27.0469 34.3467 26.9771 34.1689C24.881 28.5689 26.6277 22.0444 31.0644 18.3467C32.2871 17.3333 33.7544 16.4089 35.3439 16C33.7544 19.2889 34.2784 23.5733 36.8286 26.1689C37.4251 26.776 38.0832 27.2786 38.7417 27.7816C39.2979 28.2064 39.8545 28.6315 40.3744 29.12C40.4248 29.1713 40.4754 29.2225 40.5261 29.2739ZM34.4006 42.8444C35.012 42.6667 35.798 42.2044 36.2871 41.7778H36.2696C37.3177 40.8 37.929 39.2 37.8766 37.7422C37.8766 37.4756 37.8417 37.2267 37.7718 36.9778C37.4877 35.4047 36.5085 34.5239 35.4933 33.6109C34.9482 33.1206 34.3928 32.6211 33.929 32C33.5273 31.4667 33.1779 30.7911 32.881 30.1156C32.3919 31.3422 32.357 32.4622 32.5666 33.7778C32.6317 34.1706 32.7228 34.5474 32.8125 34.9185C33.0354 35.8406 33.2499 36.7282 33.0382 37.7422C32.6889 39.3244 31.4661 40.8889 29.3875 41.3867C30.5578 42.56 32.4792 43.5556 34.4006 42.8444Z" fill="#FB6D3A"/>
</svg>
