<svg xmlns="http://www.w3.org/2000/svg" style="display: none;">  fill="#503E9D" fill="#878787"

<symbol id="icon01">
    <path fill-rule="evenodd" clip-rule="evenodd" d="M24 13.0534L12 1L0 13.0534H2.31282V24H10.7891V16.7023H13.2109V24H21.6872V13.0534H24ZM8.36731 14.2697V21.5674H4.73461V11.7277L12 4.42993L19.2654 11.7277V21.5674H15.6327V14.2697H13.2109H10.7891H8.36731Z"/>
</symbol>

<symbol id="icon02">
    <path fill-rule="evenodd" clip-rule="evenodd" d="M0 0H10.6667V13.3333H0V0ZM24 0H13.3333V8H24V0ZM8 10.6667V2.66667H2.66667V10.6667H8ZM21.3333 5.33333V2.66667H16V5.33333H21.3333ZM21.3333 13.3333V21.3333H16V13.3333H21.3333ZM8 21.3333V18.6667H2.66667V21.3333H8ZM24 10.6667H13.3333V24H24V10.6667ZM0 16H10.6667V24H0V16Z" />
</symbol>

<symbol id="icon03">
    <path fill-rule="evenodd" clip-rule="evenodd" d="M5.57143 0H18.4286C19.8429 0 21 1.18667 21 2.66667V24L12 20L3 24V2.66667C3 1.19391 4.15127 0 5.57143 0ZM12 17.0933L18.4286 20V2.66667H5.57143V20L12 17.0933Z"/>
</symbol>

<symbol id="icon04">
    <path fill-rule="evenodd" clip-rule="evenodd" d="M2.66667 0C1.18667 0 0 1.18667 0 2.66667V21.3333C0 22.8133 1.18667 24 2.66667 24H21.3333C22.8133 24 24 22.8133 24 21.3333V2.66667C24 1.18667 22.8133 0 21.3333 0H2.66667ZM2.66667 2.66667H21.3333V21.3333H2.66667V2.66667ZM5.33333 8V5.33333H18.6667V8H5.33333ZM5.33333 10.6667V13.3333H18.6667V10.6667H5.33333ZM5.33333 18.6667V16H14.6667V18.6667H5.33333Z"/>
</symbol>

<symbol id="icon05">
    <path fill-rule="evenodd" clip-rule="evenodd" d="M2.4 3H21.6C22.9255 3 24 4.06332 24 5.375V19.625C24 20.9367 22.9255 22 21.6 22H2.4C1.068 22 0 20.9312 0 19.625V5.375C0 4.05687 1.068 3 2.4 3ZM12 11.3125L21.6 5.375H2.4L12 11.3125ZM21.6 8.18937V19.625H2.4V8.18937L12 14.115L21.6 8.18937Z"/>
</symbol>

<symbol id="icon06">
    <path fill-rule="evenodd" clip-rule="evenodd" d="M9.53323 24C9.22489 24 8.96588 23.784 8.91654 23.496L8.46019 20.316C7.68316 20.016 7.01713 19.608 6.37577 19.128L3.30464 20.34C3.0333 20.436 2.70029 20.34 2.55228 20.076L0.0855125 15.924C-0.0748274 15.66 -0.00082439 15.336 0.233519 15.156L2.83596 13.164L2.74962 12L2.83596 10.8L0.233519 8.844C-0.00082439 8.664 -0.0748274 8.34 0.0855125 8.076L2.55228 3.924C2.70029 3.66 3.0333 3.552 3.30464 3.66L6.37577 4.86C7.01713 4.392 7.68316 3.984 8.46019 3.684L8.91654 0.504C8.96588 0.216 9.22489 0 9.53323 0H14.4668C14.7751 0 15.0341 0.216 15.0835 0.504L15.5398 3.684C16.3168 3.984 16.9829 4.392 17.6242 4.86L20.6954 3.66C20.9667 3.552 21.2997 3.66 21.4477 3.924L23.9145 8.076C24.0748 8.34 24.0008 8.664 23.7665 8.844L21.164 10.8L21.2504 12L21.164 13.2L23.7665 15.156C24.0008 15.336 24.0748 15.66 23.9145 15.924L21.4477 20.076C21.2997 20.34 20.9667 20.448 20.6954 20.34L17.6242 19.14C16.9829 19.608 16.3168 20.016 15.5398 20.316L15.0835 23.496C15.0341 23.784 14.7751 24 14.4668 24H9.53323ZM16.9335 12C16.9335 9.34903 14.7247 7.2 12 7.2C9.27528 7.2 7.06646 9.34903 7.06646 12C7.06646 14.651 9.27528 16.8 12 16.8C14.7247 16.8 16.9335 14.651 16.9335 12ZM9.53323 12C9.53323 10.6745 10.6376 9.6 12 9.6C13.3624 9.6 14.4668 10.6745 14.4668 12C14.4668 13.3255 13.3624 14.4 12 14.4C10.6376 14.4 9.53323 13.3255 9.53323 12ZM10.6186 5.532L11.075 2.4H12.925L13.3814 5.544C14.8615 5.832 16.1688 6.6 17.1185 7.668L20.091 6.42L21.016 7.98L18.4136 9.84C18.9069 11.244 18.9069 12.768 18.4136 14.172L21.0284 16.032L20.1033 17.592L17.1062 16.344C16.1565 17.4 14.8615 18.168 13.3937 18.468L12.9374 21.6H11.0626L10.6063 18.456C9.13855 18.168 7.8435 17.4 6.89379 16.344L3.89667 17.592L2.97163 16.032L5.5864 14.16C5.09305 12.768 5.09305 11.244 5.5864 9.84L2.98396 7.98L3.909 6.42L6.88146 7.668C7.83116 6.6 9.13855 5.832 10.6186 5.532Z"/>
</symbol>

<symbol id="icon07">
    <path d="M23.2497 11.25H13.7496C13.3356 11.25 12.9996 10.914 12.9996 10.5C12.9996 10.086 13.3356 9.75 13.7496 9.75H23.2497C23.6637 9.75 23.9997 10.086 23.9997 10.5C23.9997 10.914 23.6637 11.25 23.2497 11.25Z"/>
    <path d="M19.4997 15C19.3076 15 19.1157 14.9269 18.9696 14.7801C18.6766 14.4869 18.6766 14.012 18.9696 13.719L22.1897 10.4991L18.9696 7.27899C18.6766 6.98602 18.6766 6.51105 18.9696 6.21808C19.2628 5.92493 19.7377 5.92493 20.0307 6.21808L23.7807 9.96808C24.0737 10.261 24.0737 10.736 23.7807 11.029L20.0307 14.779C19.8837 14.9269 19.6918 15 19.4997 15V15Z"/>
    <path d="M8.00006 24C7.78601 24 7.58295 23.97 7.38007 23.907L1.36194 21.902C0.543091 21.616 0 20.853 0 20.0001V2.00006C0 0.897034 0.897034 0 2.00006 0C2.21393 0 2.41699 0.0300293 2.62006 0.0930176L8.638 2.09802C9.45703 2.38403 9.99994 3.14703 9.99994 3.99994V21.9999C9.99994 23.103 9.10309 24 8.00006 24ZM2.00006 1.5C1.72504 1.5 1.5 1.72504 1.5 2.00006V20.0001C1.5 20.213 1.64301 20.4109 1.84698 20.482L7.83691 22.478C7.87994 22.4919 7.93597 22.5 8.00006 22.5C8.27509 22.5 8.49994 22.275 8.49994 21.9999V3.99994C8.49994 3.78699 8.35693 3.58905 8.15295 3.51801L2.16302 1.52197C2.12 1.50806 2.06396 1.5 2.00006 1.5V1.5Z"/>
    <path d="M15.2496 8.00006C14.8356 8.00006 14.4996 7.66406 14.4996 7.25006V2.75006C14.4996 2.06104 13.9388 1.5 13.2498 1.5H1.99976C1.58575 1.5 1.24976 1.164 1.24976 0.75C1.24976 0.335999 1.58575 0 1.99976 0H13.2498C14.7668 0 15.9996 1.23303 15.9996 2.75006V7.25006C15.9996 7.66406 15.6636 8.00006 15.2496 8.00006Z"/>
    <path d="M13.2498 21H9.24963C8.83563 21 8.49963 20.664 8.49963 20.25C8.49963 19.836 8.83563 19.5 9.24963 19.5H13.2498C13.9388 19.5 14.4996 18.939 14.4996 18.2499V13.7499C14.4996 13.3359 14.8356 12.9999 15.2496 12.9999C15.6636 12.9999 15.9996 13.3359 15.9996 13.7499V18.2499C15.9996 19.767 14.7668 21 13.2498 21V21Z"/>
</symbol>

</svg>